<svg width="266" height="198" viewBox="0 0 266 198" fill="none" xmlns="http://www.w3.org/2000/svg">
<path d="M10.4917 197.266C10.2282 197.751 9.62106 197.931 9.13573 197.668L1.22679 193.372C0.741455 193.109 0.561684 192.502 0.825258 192.016C1.08883 191.531 1.69594 191.351 2.18127 191.615L9.21144 195.433L13.0294 188.403C13.293 187.917 13.9001 187.738 14.3854 188.001C14.8707 188.265 15.0505 188.872 14.7869 189.357L10.4917 197.266ZM265.856 2.75814C262.457 3.62016 258.947 4.54204 255.339 5.52271L254.815 3.59275C258.433 2.60918 261.954 1.68439 265.365 0.819497L265.856 2.75814ZM234.392 11.5646C227.656 13.6155 220.705 15.8335 213.605 18.2132L212.969 16.3169C220.087 13.9313 227.056 11.7075 233.809 9.6513L234.392 11.5646ZM193.016 25.4315C186.284 27.8972 179.48 30.495 172.655 33.2204L171.913 31.363C178.756 28.6302 185.579 26.0256 192.328 23.5535L193.016 25.4315ZM152.525 41.6218C145.866 44.5259 139.238 47.5477 132.687 50.683L131.823 48.8789C138.397 45.7329 145.047 42.7015 151.725 39.7886L152.525 41.6218ZM113.216 60.4776C106.724 63.914 100.365 67.4646 94.1892 71.1251L93.1694 69.4046C99.3748 65.7264 105.762 62.1601 112.28 58.71L113.216 60.4776ZM75.7716 82.7646C69.6183 86.9236 63.7382 91.2025 58.1939 95.5958L56.9518 94.0283C62.5398 89.6004 68.4612 85.2918 74.6516 81.1076L75.7716 82.7646ZM41.825 109.892C36.437 115.126 31.5665 120.496 27.3023 125.994L25.722 124.768C30.0511 119.187 34.9859 113.748 40.4314 108.458L41.825 109.892ZM15.7339 144.213C12.4507 150.844 10.0989 157.629 8.80985 164.556L6.8436 164.191C8.17001 157.062 10.5859 150.103 13.9415 143.325L15.7339 144.213ZM8.28834 185.965C8.76553 189.443 9.52126 192.957 10.5718 196.505L8.65413 197.073C7.57552 193.43 6.79814 189.818 6.3069 186.237L8.28834 185.965Z" fill="white"/>
</svg>
