<svg width="257" height="197" viewBox="0 0 257 197" fill="none" xmlns="http://www.w3.org/2000/svg">
<path d="M246.626 196.486C246.895 196.969 247.503 197.142 247.986 196.874L255.851 192.499C256.334 192.23 256.507 191.621 256.239 191.139C255.97 190.656 255.362 190.483 254.879 190.751L247.888 194.64L243.999 187.649C243.73 187.166 243.121 186.993 242.639 187.261C242.156 187.53 241.983 188.138 242.251 188.621L246.626 196.486ZM0.745337 1.96703C4.5059 2.95736 8.40702 4.02671 12.4295 5.17344L12.9779 3.25007C8.94277 2.09976 5.02864 1.02683 1.25466 0.0329701L0.745337 1.96703ZM35.7165 12.269C43.1849 14.6866 50.9004 17.3176 58.7693 20.1541L59.4475 18.2727C51.5575 15.4286 43.8213 12.7904 36.3324 10.3662L35.7165 12.269ZM81.5377 28.7901C88.9905 31.7612 96.4977 34.9004 103.986 38.2013L104.793 36.3712C97.2813 33.0601 89.752 29.9117 82.2783 26.9323L81.5377 28.7901ZM126.056 48.4535C133.37 52.0358 140.593 55.7704 147.655 59.6511L148.618 57.8983C141.527 54.0014 134.276 50.2523 126.936 46.6574L126.056 48.4535ZM168.632 71.9448C175.631 76.3297 182.368 80.868 188.763 85.5521L189.945 83.9387C183.507 79.2229 176.729 74.6577 169.694 70.25L168.632 71.9448ZM207.683 100.79C213.938 106.373 219.649 112.127 224.702 118.041L226.223 116.742C221.103 110.75 215.327 104.932 209.015 99.2978L207.683 100.79ZM238.625 137.739C242.689 144.991 245.696 152.437 247.473 160.061L249.421 159.607C247.596 151.776 244.513 144.155 240.37 136.761L238.625 137.739ZM248.894 183.914C248.451 187.807 247.673 191.745 246.538 195.726L248.462 196.274C249.626 192.19 250.426 188.145 250.881 184.14L248.894 183.914Z" fill="white"/>
</svg>
