<svg width="58" height="58" viewBox="0 0 58 58" fill="none" xmlns="http://www.w3.org/2000/svg">
<path d="M51.498 28.5025C51.498 29.087 51.2408 29.6247 50.7732 30.069L35.2485 45.5936C34.7575 46.038 34.2665 46.225 33.7287 46.225C32.5597 46.225 31.6712 45.3834 31.6712 44.2144C31.6712 43.6766 31.8816 43.1154 32.2558 42.7412L37.4696 37.4106L45.3723 30.2326L39.6908 30.6068H10.1377C8.92192 30.6068 8.08012 29.7183 8.08012 28.5025C8.08012 27.2868 8.92192 26.4215 10.1377 26.4215H39.6908L45.3489 26.7723L37.4696 19.5944L32.2558 14.287C31.8582 13.8896 31.6712 13.3518 31.6712 12.7907C31.6712 11.645 32.5597 10.7799 33.7287 10.7799C34.2665 10.7799 34.7808 10.9903 35.2952 11.4813L50.7732 26.936C51.2408 27.4036 51.498 27.9413 51.498 28.5025Z" fill="white"/>
</svg>
